HIERARCHY
ROOT Hips
{
	OFFSET 0.000000 0.000000 0.000000
	CHANNELS 6 Xposition Yposition Zposition Zrotation Yrotation Xrotation 
	JOINT LHipJoint
	{
		OFFSET 0.000000 0.000000 0.000000
		CHANNELS 3 Zrotation Yrotation Xrotation
		JOINT LeftUpLeg
		{
			OFFSET 1.363060 -1.794630 0.839290
			CHANNELS 3 Zrotation Yrotation Xrotation
			JOINT LeftLeg
			{
				OFFSET 2.448110 -6.726130 0.000000
				CHANNELS 3 Zrotation Yrotation Xrotation
				JOINT LeftFoot
				{
					OFFSET 2.562200 -7.039590 0.000000
					CHANNELS 3 Zrotation Yrotation Xrotation
					JOINT LeftToeBase
					{
						OFFSET 0.157640 -0.433110 2.322550
						CHANNELS 3 Zrotation Yrotation Xrotation
						End Site
						{
							OFFSET 0.000000 0.000000 0.000000
						}
					}
				}
			}
		}
	}
	JOINT RHipJoint
	{
		OFFSET 0.000000 0.000000 0.000000
		CHANNELS 3 Zrotation Yrotation Xrotation
		JOINT RightUpLeg
		{
			OFFSET -1.305520 -1.794630 0.839290
			CHANNELS 3 Zrotation Yrotation Xrotation
			JOINT RightLeg
			{
				OFFSET -2.542530 -6.985550 0.000000
				CHANNELS 3 Zrotation Yrotation Xrotation
				JOINT RightFoot
				{
					OFFSET -2.568260 -7.056230 0.000000
					CHANNELS 3 Zrotation Yrotation Xrotation
					JOINT RightToeBase
					{
						OFFSET -0.164730 -0.452590 2.363150
						CHANNELS 3 Zrotation Yrotation Xrotation
						End Site
						{
							OFFSET 0.000000 0.000000 0.000000
						}
					}
				}
			}
		}
	}
}
MOTION
Frames: 25
Frame Time: 0.008333
5.720357 16.832411 -4.805332 178.003482 35.970943 -171.815554 -7.736108 2.408616 1.542188 -23.370558 9.530781 -35.944122 -3.663525 -0.281654 12.100361 1.451319 9.295451 0.402893 1.889500 0.000000 -6.519400 12.043757 -3.388755 -1.349087 -2.343221 -16.168551 6.334875 0.623746 -1.074114 16.930680 -0.751395 -4.452359 6.882890 -1.331100 0.000000 -81.832500
5.781707 16.855127 -4.932995 177.668700 35.572579 -172.082400 -7.647376 2.458241 1.671781 -23.341441 8.640781 -34.957932 -3.611452 -0.312942 12.140706 1.538910 9.723525 -0.057993 1.876300 -0.000000 -6.191100 12.221836 -3.357945 -1.403860 -2.977212 -16.302909 5.676676 0.408983 -1.280546 18.991836 -0.796587 -4.474361 8.744545 -1.418101 0.000000 -83.708801
5.838239 16.878688 -5.060935 177.398138 35.199539 -172.285159 -7.577652 2.491123 1.781034 -23.324746 7.873941 -34.006269 -3.570496 -0.354454 12.112276 1.622295 10.087021 -0.625085 1.823900 0.000000 -5.899699 12.372286 -3.319081 -1.438376 -3.496161 -16.341418 4.880005 0.189497 -1.477905 21.199183 -0.873249 -4.588538 10.728286 -1.527100 0.000001 -85.117099
5.890662 16.902560 -5.187960 177.165145 34.854999 -172.454852 -7.522211 2.514199 1.858512 -23.353494 7.280983 -33.070346 -3.545577 -0.405042 11.990138 1.692120 10.359410 -1.223188 1.742100 0.000000 -5.653500 12.506395 -3.268040 -1.451881 -3.937317 -16.291466 3.961091 -0.030700 -1.662418 23.544217 -0.980377 -4.783443 12.795532 -1.659900 -0.000000 -86.034800
5.938883 16.926377 -5.314106 176.994631 34.542398 -172.564851 -7.489046 2.529243 1.901337 -23.411106 6.902099 -32.203579 -3.536701 -0.458874 11.808073 1.738349 10.494230 -1.808757 1.635000 -0.000000 -5.458300 12.615493 -3.208682 -1.433949 -4.251269 -16.117446 2.911608 -0.242116 -1.829170 26.014141 -1.118239 -5.092080 14.867553 -1.834700 -0.000000 -86.201000
5.983573 16.949738 -5.438663 176.875653 34.260605 -172.626474 -7.476679 2.540816 1.906538 -23.500417 6.754039 -31.412193 -3.544827 -0.512625 11.577717 1.754220 10.469971 -2.337231 1.513100 -0.000000 -5.315900 12.703345 -3.140992 -1.384946 -4.448280 -15.824172 1.745781 -0.437113 -1.977022 28.589587 -1.280886 -5.513269 16.866884 -2.059700 -0.000000 -85.580600
6.025044 16.972257 -5.561250 176.807458 34.005481 -172.643515 -7.484609 2.551722 1.875003 -23.613158 6.833161 -30.706603 -3.568690 -0.562604 11.322664 1.736110 10.274435 -2.784328 1.384500 -0.000000 -5.220400 12.770591 -3.066873 -1.308281 -4.532720 -15.421944 0.478413 -0.608543 -2.107685 31.250149 -1.459380 -6.042466 18.697334 -2.339700 -0.000000 -84.085300
6.063910 16.993689 -5.681323 176.775135 33.770501 -172.633772 -7.507892 2.564788 1.809633 -23.747357 7.113295 -30.073957 -3.606566 -0.606696 11.056557 1.684828 9.916741 -3.136711 1.257000 0.000000 -5.159800 12.822360 -2.986945 -1.212564 -4.532850 -14.937460 -0.863557 -0.753514 -2.225520 33.963221 -1.644035 -6.668275 20.277753 -2.672500 0.000000 -81.930899
6.100610 17.013806 -5.798646 176.773125 33.547630 -172.603163 -7.544240 2.580321 1.717683 -23.886680 7.550488 -29.513344 -3.654632 -0.642695 10.803919 1.604842 9.415795 -3.402865 1.133900 -0.000000 -5.117700 12.859504 -2.903608 -1.106266 -4.458280 -14.394207 -2.260249 -0.872537 -2.335930 36.696097 -1.826062 -7.383999 21.530960 -3.052700 -0.000000 -79.299200
6.135239 17.032554 -5.913246 176.801437 33.327217 -172.554651 -7.591807 2.597283 1.607967 -24.013041 8.088859 -29.016218 -3.707745 -0.669482 10.585277 1.503785 8.803490 -3.603841 1.016101 0.000000 -5.077700 12.882370 -2.819287 -0.999487 -4.319549 -13.819726 -3.692627 -0.969240 -2.444894 39.420444 -1.996923 -8.169015 22.386360 -3.461400 0.000000 -76.232600
6.168028 17.049934 -6.025086 176.851506 33.098921 -172.496837 -7.647195 2.614108 1.489769 -24.112676 8.664871 -28.560991 -3.760918 -0.687862 10.406663 1.391461 8.124907 -3.763475 0.904600 0.000000 -5.028099 12.893482 -2.734326 -0.901964 -4.134161 -13.241282 -5.138978 -1.050098 -2.556752 42.100635 -2.151671 -9.002606 22.810279 -3.876099 -0.000000 -72.976601
6.199188 17.066057 -6.134224 176.915732 32.852577 -172.436335 -7.707475 2.628575 1.372102 -24.174218 9.216356 -28.123399 -3.809397 -0.699870 10.265262 1.278036 7.429345 -3.907024 0.800200 0.000000 -4.964900 12.894912 -2.647904 -0.820419 -3.915515 -12.677110 -6.578425 -1.121992 -2.672950 44.695158 -2.289567 -9.871717 22.811867 -4.277899 -0.000000 -69.939001
6.228647 17.081059 -6.240934 176.992554 32.579211 -172.374236 -7.771416 2.638314 1.262524 -24.187264 9.692261 -27.682172 -3.848958 -0.707862 10.154536 1.172123 6.760865 -4.057504 0.703500 0.000000 -4.893800 12.887194 -2.559534 -0.759926 -3.672223 -12.142633 -7.997287 -1.189715 -2.793815 47.175356 -2.409166 -10.746080 22.399709 -4.637200 -0.000000 -67.176200
6.256526 17.095107 -6.345386 177.075904 32.271724 -172.313930 -7.837686 2.641587 1.166499 -24.147437 10.055633 -27.217576 -3.877036 -0.714516 10.061386 1.080001 6.155553 -4.230174 0.615300 -0.000000 -4.829400 12.871165 -2.468113 -0.722308 -3.412199 -11.645849 -9.383501 -1.256259 -2.917600 49.510910 -2.511012 -11.598741 21.612493 -4.930200 0.000000 -64.810000
6.282666 17.108353 -6.447946 177.166359 31.924880 -172.254265 -7.905652 2.637394 1.087081 -24.056045 10.286681 -26.715948 -3.892261 -0.722163 9.970869 1.005146 5.637012 -4.431838 0.536200 -0.000000 -4.792300 12.847021 -2.373125 -0.707902 -3.142945 -11.193087 -10.730850 -1.322050 -3.042216 51.680545 -2.594368 -12.392600 20.488076 -5.130500 -0.000000 -62.733300
6.307174 17.120980 -6.548840 177.259480 31.535467 -172.196101 -7.974679 2.625797 1.025507 -23.919730 10.381104 -26.170010 -3.894863 -0.732522 9.868032 0.948442 5.216885 -4.659069 0.466900 -0.000001 -4.803500 12.815118 -2.273924 -0.713376 -2.870542 -10.782404 -12.034491 -1.385945 -3.164035 53.659293 -2.660658 -13.104619 19.099353 -5.228500 0.000001 -61.016299
6.329939 17.133048 -6.648416 177.357833 31.104351 -172.137727 -8.045552 2.607417 0.978647 -23.746852 10.360060 -25.581774 -3.886518 -0.745942 9.743875 0.907006 4.884068 -4.902579 0.406300 -0.000000 -4.885800 12.774950 -2.171201 -0.734881 -2.597890 -10.409427 -13.291923 -1.445322 -3.280199 55.431592 -2.709198 -13.704138 17.508709 -5.215800 -0.000000 -59.536000
6.350967 17.144659 -6.746832 177.461899 30.633516 -172.078932 -8.119592 2.583133 0.941984 -23.544952 10.252528 -24.958013 -3.869358 -0.761821 9.594377 0.876654 4.619399 -5.148080 0.353400 0.000000 -5.055700 12.725779 -2.065352 -0.767316 -2.325532 -10.064757 -14.499555 -1.497243 -3.387196 56.979847 -2.741262 -14.178935 15.803376 -5.103100 0.000000 -58.360500
6.370577 17.155884 -6.844299 177.569337 30.123870 -172.016972 -8.195686 2.555410 0.914655 -23.328209 10.080264 -24.311563 -3.846091 -0.779784 9.416749 0.853562 4.405709 -5.377233 0.308400 -0.000000 -5.317400 12.668900 -1.957453 -0.803932 -2.058823 -9.742787 -15.666344 -1.538746 -3.483228 58.303248 -2.755803 -14.509543 14.039049 -4.898400 -0.000000 -57.233300
6.388902 17.166672 -6.940991 177.681640 29.580850 -171.948658 -8.274680 2.525762 0.891641 -23.104092 9.878581 -23.658913 -3.819640 -0.798333 9.216350 0.832256 4.212965 -5.575309 0.270300 0.000000 -5.671800 12.604209 -1.848240 -0.838533 -1.796326 -9.430180 -16.795081 -1.567689 -3.566017 59.395922 -2.754038 -14.697043 12.290335 -4.625799 0.000000 -56.223600
6.406163 17.177051 -7.036964 177.801463 29.008722 -171.873306 -8.357825 2.495735 0.868480 -22.876098 9.681017 -23.014722 -3.792474 -0.815595 9.003623 0.807588 4.010764 -5.731734 0.238200 0.000000 -6.110100 12.531624 -1.739393 -0.866001 -1.535597 -9.116128 -17.886916 -1.582548 -3.634651 60.260671 -2.736136 -14.742660 10.600594 -4.305400 -0.000000 -55.221700
6.422878 17.186979 -7.132314 177.924022 28.411202 -171.786384 -8.442314 2.467202 0.846252 -22.653556 9.494067 -22.393392 -3.766642 -0.831285 8.784017 0.777732 3.788418 -5.839417 0.212000 0.000000 -6.611199 12.453522 -1.630806 -0.880149 -1.281028 -8.790112 -18.953700 -1.582825 -3.688632 60.904810 -2.703539 -14.657454 9.005455 -3.958999 -0.000000 -54.227200
6.438790 17.196427 -7.227018 178.062391 27.796532 -171.689678 -8.534474 2.439022 0.815300 -22.420985 9.361309 -21.805754 -3.743128 -0.842100 8.581025 0.737349 3.506563 -5.905468 0.188600 -0.000000 -7.166200 12.365808 -1.524893 -0.880506 -1.016434 -8.436285 -19.980314 -1.568213 -3.727272 61.327861 -2.657750 -14.458406 7.523324 -3.605500 0.000000 -53.311100
6.454842 17.205369 -7.321145 178.202290 27.165573 -171.578413 -8.626179 2.413163 0.784880 -22.193391 9.248228 -21.256495 -3.722512 -0.850324 8.389830 0.690406 3.188654 -5.932276 0.169100 -0.000000 -7.736900 12.274074 -1.420019 -0.861287 -0.757779 -8.049947 -20.987145 -1.539134 -3.751693 61.546898 -2.600464 -14.159569 6.146305 -3.254700 -0.000000 -52.391400
6.471052 17.213809 -7.414650 178.348181 26.523963 -171.453445 -8.718922 2.388374 0.752787 -21.961944 9.159951 -20.747301 -3.704398 -0.855262 8.221787 0.637070 2.828747 -5.935456 0.151200 -0.000000 -8.303700 12.176788 -1.316889 -0.822365 -0.499299 -7.620306 -21.966768 -1.495738 -3.762149 61.566653 -2.534084 -13.782169 4.861595 -2.915100 0.000000 -51.508000
